<svg width="43" height="43" viewBox="0 0 43 43" fill="none" xmlns="http://www.w3.org/2000/svg">
<path d="M39.6642 0.501465H3.33576C1.76919 0.501465 0.5 1.77331 0.5 3.33988V39.6631C0.5 41.2323 1.77184 42.4988 3.33576 42.4988H39.6642C41.2308 42.4988 42.5 41.2296 42.5 39.6631V3.34253C42.5 1.77596 41.2308 0.501465 39.6642 0.501465ZM22.801 37.438C16.179 37.438 10.7039 32.271 10.303 25.6648C10.2791 25.5161 10.2658 25.3621 10.2658 25.2081V8.49097C10.2658 6.88192 11.5749 5.57025 13.1866 5.57025H13.3167C14.9257 5.57025 16.2374 6.88192 16.2374 8.49097L16.2454 24.9054C16.2454 28.5139 19.1847 31.4585 22.7984 31.4585C26.4121 31.4585 29.3488 28.5165 29.3488 24.9054C29.3488 21.3076 26.4201 18.3683 22.8249 18.3524H21.5106C19.8617 18.3524 18.5182 17.0699 18.5182 15.4927V15.2272C18.5182 13.65 19.8617 12.3676 21.5106 12.3676H22.7957C29.7072 12.3676 35.3283 17.9913 35.3283 24.9028C35.3336 31.8143 29.7125 37.438 22.801 37.438Z" fill="#595959"/>
</svg>
