<svg width="16" height="17" viewBox="0 0 16 17" fill="none" xmlns="http://www.w3.org/2000/svg">
<path d="M6.22222 2.82286V4.70477H1.77778V15.0553H11.5556V10.3505H13.3333V15.9962C13.3333 16.2458 13.2397 16.4851 13.073 16.6616C12.9063 16.838 12.6802 16.9372 12.4444 16.9372H0.888889C0.653141 16.9372 0.427048 16.838 0.260349 16.6616C0.0936505 16.4851 0 16.2458 0 15.9962V3.76381C0 3.51426 0.0936505 3.27492 0.260349 3.09846C0.427048 2.922 0.653141 2.82286 0.888889 2.82286H6.22222ZM16 0V7.52763H14.2222V3.21147L7.29511 10.5453L6.03822 9.21476L12.9644 1.88191H8.88889V0H16Z" fill="#BDAEF2"/>
</svg>
